<svg xmlns="http://www.w3.org/2000/svg" width="969.707" height="713.492" viewBox="0 0 969.707 713.492">
  <g id="House" transform="translate(-1.211 -48.78)">
    <g id="Group" transform="translate(924.38 547.842)">
      <g id="Group-2" data-name="Group" transform="translate(-0.301 1.348)">
        <g id="New-Logo">
          <g id="Page-1">
            <path id="Rectangle" d="M9.7,1.079,25.4.409l9.617,10.268.927,16.339L26.682,38.164l-15.732.8L1.247,28.7.36,12.643Z" transform="translate(0.996 1.668)" fill="#fff"/>
            <path id="Fill-1" d="M26.343.458l-15.39.651L.392,13.723.947,30.955,12.318,42.591l15.426-.79L38.181,29.146,37.59,12.054Zm-.822,2.468,9.928,10.232.52,15.084L26.756,39.4l-13.607.689L3.124,29.831,2.632,14.637l9.31-11.13Z" transform="translate(0 0)" fill="#e6e6e6"/>
            <path id="Fill-2" d="M5.889,2.843l.335,9.867-2.465.119L3.426,2.957.091,3.11,0,.415,9.152,0l.092,2.689Z" transform="translate(22.476 14.624)" fill="#fff"/>
            <path id="Fill-3" d="M5.889,2.843l.335,9.867-2.465.119L3.426,2.957.091,3.11,0,.415,9.152,0l.092,2.689Z" transform="translate(22.476 14.624)" fill="#e6e6e6"/>
            <path id="Fill-4" d="M6,6.115,4.771,9.02,7.391,8.9ZM9.318,12.72l-.631-1.264-5.024.24L3.1,13.019l-2.688.129L5.8.262,12,12.592Z" transform="translate(6.588 15.229)" fill="#e6e6e6"/>
            <path id="Fill-5" d="M4.174,10.106,2.8,10.171l-.237-7.1,1.372-.063a3.248,3.248,0,0,1,1.305.2,2.909,2.909,0,0,1,1.042.678,3.25,3.25,0,0,1,.7,1.089,4.244,4.244,0,0,1,.287,1.433,4.3,4.3,0,0,1-.19,1.456,3.365,3.365,0,0,1-.628,1.152,3.018,3.018,0,0,1-.994.773,3.3,3.3,0,0,1-1.288.319M8.97,3.25l-2.576.119-.016-.491L6.3.709A5.319,5.319,0,0,0,5.128.345,5.491,5.491,0,0,0,4.5.265,5.734,5.734,0,0,0,3.845.258L0,.432.208,6.7l3.013,6,.11.219.936-.045a5.486,5.486,0,0,0,4-1.99A6.218,6.218,0,0,0,9.4,8.83a7.367,7.367,0,0,0,.346-2.54,7.765,7.765,0,0,0-.072-.83,7.252,7.252,0,0,0-.156-.787,6.8,6.8,0,0,0-.235-.738A6.416,6.416,0,0,0,8.97,3.25" transform="translate(15.748 14.876)" fill="#e6e6e6"/>
          </g>
        </g>
        <path id="Rectangle-2" data-name="Rectangle" d="M0,.149,2.926,0l1.1,32.666-2.931.17Z" transform="translate(19.304 40.926)" fill="#e6e6e6"/>
      </g>
    </g>
    <g id="Group_1501" data-name="Group 1501" transform="translate(1.211 48.78)">
      <path id="Fill-1-2" data-name="Fill-1" d="M343.114,161.136,321.4,162.9l-.323-15.8L179.585,32.662,26.521,169.5l-.147,17.325L0,188.96l.274-24.92.811-.71L179.419,7.476,342.61,138.741Zm-18.154-2.469,14.469-1.155-.369-16.663L179.454,12.646,4.666,165.755l-.194,18.5,17.575-1.4.134-15.042L179.551,27.446,324.677,144.983l.283,13.687Z" transform="translate(166.466 261.905)" fill="#e6e6e6"/>
      <path id="Fill-2-2" data-name="Fill-2" d="M28.184,232.712l-21.3.3-.441-21.646L231.046,20.542l100.446,90.4-1.614,2.546L231.231,24.806,10.04,213.161l.332,16.024L24.57,229l-.29-13.09.66-.567L231.779,37.322l90.985,81.791-1.633,2.56L231.964,41.607,27.847,217.7l.338,15.012" transform="translate(476.698 -18.866)" fill="#e6e6e6"/>
      <path id="Fill-3-2" data-name="Fill-3" d="M265.937,141.683l-15.552.216-.853-12.912L136.882,27.7,26.669,131l.613,13.989L8.81,145.25l-.846-20.179L135.745,7.185l128.947,116.1Zm-13.161-3.045,10.366-.129-.919-13.641L135.975,11.326,11.125,126.759l.631,14.928,12.311-.156-.531-12.208L136.651,23.539,252.03,127.394l.746,11.246Z" transform="translate(691.052 65.896)" fill="#e6e6e6"/>
      <path id="Fill-4-2" data-name="Fill-4" d="M805.953,619.156,24.02,737.621,26.171,495.16,4.165,496.942l.274-24.806,22.107-19.224,1.7-191.495.03-.168L50.613,138.2l377.945,8.745L545.365,48.122l99.464,89.267L664.486,119.4l37.792,33.876,59.7,1.382L774.829,218.3l18.565,16.64,1.238,18.3-12.947.176ZM28.532,732.439,803.048,616.113l-24.18-365.869,12.969-.161-.915-13.57L772.54,220.055l-12.57-62.29-58.435-1.283-.516-.46L664.71,123.513l-19.673,18.044L545.549,52.369,429.811,150.515l-375.7-8.253L32.508,261.7l-1.63,192.924L8.83,473.845l-.194,18.411,21.94-1.75Z" transform="translate(162.305 -46.45)" fill="#e6e6e6"/>
      <path id="Fill-5-2" data-name="Fill-5" d="M547.8,53.023,647.28,142.18l19.666-18.005,37.182,33.28.125.112,59.072,1.325,12.7,62.92L794.5,238.348l1.076,15.927-12.958.169,24.21,365.527L28.6,737.365l2.1-242.014L8.726,497.119l.233-21.589L31.038,456.32,32.7,264.248,54.69,143l376.834,8.45L547.8,53.023m-.183-4.244-117.346,99.1L51.187,138.934l-22.7,124.694-.065.337L26.7,454.6,4.562,473.821l-.314,27.987,22.039-1.8-2.2,242.543L809.727,623.01l-24.294-365.4,12.936-.185-1.4-20.653L778.31,220.06l-12.989-64.277-60.329-1.42-38.277-34.3-19.644,17.948L547.62,48.78" transform="translate(159.98 -48.78)" fill="#e6e6e6"/>
      <path id="Fill-6" d="M0,7.764l292.687-4L292.61,0,.035,3.645Z" transform="translate(192.663 209.71)" fill="#e6e6e6"/>
      <path id="Fill-7" d="M2.518,113.727l3.566-.176L3.529,0,0,.046Z" transform="translate(501.287 211.202)" fill="#e6e6e6"/>
      <path id="Fill-8" d="M4.6,105.818l3.089-.153L3.061,0,0,.04Z" transform="translate(715.165 208.424)" fill="#e6e6e6"/>
      <path id="Fill-9" d="M5.719,258.531l3.668-.553L3.584,0,0,.243Z" transform="translate(505.06 381.441)" fill="#e6e6e6"/>
      <path id="Fill-10" d="M10.42,239.748l3.163-.477L3.1,0,0,.21Z" transform="translate(722.06 366.78)" fill="#e6e6e6"/>
      <path id="Fill-11" d="M312.521,57.274,68.542,74.006l-.079-3.9L309.271,53.89l-1.415-32.25-3.865.217L303.216,4,.054,19.164,0,15.224,306.142.291l.781,17.818,3.855-.212,1.743,39.374" transform="translate(416.622 311.763)" fill="#e6e6e6"/>
      <path id="Fill-12" d="M4.5,221.011l3.712-.56L3.639,0,0,.292Z" transform="translate(487.812 421.746)" fill="#e6e6e6"/>
      <path id="Fill-14" d="M267.164,188.431l-2.812.407L260.885,3.206,4.579,25.134,3.3,226.589l-3.3.478L1.362,22.188,263.6,0l.4,21.318" transform="translate(209.838 437.046)" fill="#e6e6e6"/>
      <path id="Fill-15" d="M.09,35.806,221.207,3.756,221.046,0,0,31.75Z" transform="translate(512.115 585.597)" fill="#e6e6e6"/>
      <path id="Fill-15-2" data-name="Fill-15" d="M0,47.865,302.058,4.083,301.975,0,.038,43.369Z" transform="translate(189.874 620.258)" fill="#e6e6e6"/>
      <path id="Fill-16" d="M.532,20.272,2.313,20,1.778,0,0,.258Z" transform="translate(556.377 612.738)" fill="#e6e6e6"/>
      <path id="Fill-17" d="M.758,19.327l1.626-.245L1.624,0,0,.234Z" transform="translate(692.389 593.135)" fill="#e6e6e6"/>
      <path id="Fill-18" d="M.026,21.077,136.086.954,136.048,0,0,20.078Z" transform="translate(557.532 602.786)" fill="#e6e6e6"/>
      <path id="Fill-19" d="M92.616,171.9l-2.476.357L83.822,3.007,2.665,10.053,7.779,184.137l-2.62.378L0,7.4,86.159,0l6.456,171.9" transform="translate(577.674 424.662)" fill="#e6e6e6"/>
      <path id="Fill-20" d="M85.956,84.223,0,88,.572,1.974,105.979,0l.258,66.653-3,.117-.226-63.72L3.718,5l-.5,79.731,82.738-3.56.006,3.055" transform="translate(212.122 232.506)" fill="#e6e6e6"/>
      <path id="Fill-21" d="M0,6.245,102.8,3.013,102.792,0,.019,3.137Z" transform="translate(213.467 271.537)" fill="#e6e6e6"/>
      <path id="Fill-22" d="M0,81.684l3.095-.134L3.19,0,.12.058Z" transform="translate(264.569 234.46)" fill="#e6e6e6"/>
      <path id="Fill-23" d="M97.333,79.457l-77.142,3.39-.034-2.966,74.389-3.2L93.17,2.905,2.9,4.675l.6,62.525-2.892.112L0,1.795,95.828,0l1.5,79.457" transform="translate(373.68 229.67)" fill="#e6e6e6"/>
      <path id="Fill-24" d="M.028,5.81,93.451,2.873,93.4,0,0,2.851Z" transform="translate(375 266.894)" fill="#e6e6e6"/>
      <path id="Fill-25" d="M1.1,77.828l2.812-.122L2.791,0,0,.053Z" transform="translate(420.929 231.493)" fill="#e6e6e6"/>
      <path id="Fill-26" d="M.081,5.294,82.567,2.7l-.1-2.7L0,2.518Z" transform="translate(573.62 261.165)" fill="#e6e6e6"/>
      <path id="Fill-27" d="M2.431,73.081l2.481-.108L2.466,0,0,.046Z" transform="translate(613.443 227.835)" fill="#e6e6e6"/>
      <path id="Fill-28" d="M2.238,78.432l85.219-3.744L84.652,0,0,1.585Zm2.469-2.905,80.234-3.453L82.353,2.728,8.486,4.177l-5.875.116Z" transform="translate(571.724 226.17)" fill="none" stroke="#e6e6e6" stroke-width="2"/>
      <path id="Fill-29" d="M5.26,107.542l115.834-5.767L114.881,0,0,1.426Zm2.09-2.722,111.544-5.451L113,2.486,2.329,3.959Z" transform="translate(775.848 204.541)" fill="none" stroke="#e6e6e6" stroke-width="2"/>
      <path id="Fill-30" d="M5.611,101.441l2.13-.105L2.114,0,0,.027Z" transform="translate(833.506 206.896)" fill="#e6e6e6"/>
      <path id="Fill-31" d="M.129,6.08l113.277-3.6L113.255,0,0,3.491Z" transform="translate(779.179 254.777)" fill="#e6e6e6"/>
      <path id="Fill-32" d="M5.484,120.681,123.22,105.913,116.754,0,0,10.062Zm2.123-3.008,113.378-14.111L114.848,2.737,2.372,12.537Z" transform="translate(786.212 404.984)" fill="none" stroke="#e6e6e6" stroke-width="2"/>
      <path id="Fill-33" d="M5.843,105.794l2.165-.271L2.148,0,0,.186Z" transform="translate(844.79 410.687)" fill="#e6e6e6"/>
      <path id="Fill-34" d="M.134,14.822,115.262,2.582,115.1,0,0,12.124Z" transform="translate(789.64 456.863)" fill="#e6e6e6"/>
      <path id="Fill-35" d="M2.26,79l31.8-4.495L31.6,0,0,3.68Zm1.276-1.673,29.181-4.111L30.358,1.6l-29,3.39Z" transform="translate(589.027 520.042)" fill="none" stroke="#e6e6e6" stroke-width="2"/>
      <path id="Fill-36" d="M2.5,77.919l31-4.386L30.807,0,0,3.586Zm1.24-1.649,28.448-4.007L29.61,1.578,1.333,4.883Z" transform="translate(627.369 515.67)" fill="none" stroke="#e6e6e6" stroke-width="2"/>
      <path id="Fill-37" d="M2.221,76.941l31.576-3.6L31.376,0,0,2.806Zm1.267-1.614,28.977-3.288-2.32-70.5L1.345,4.132Z" transform="translate(586.584 439.373)" fill="none" stroke="#e6e6e6" stroke-width="2"/>
      <path id="Fill-38" d="M2.466,75.911,33.253,72.4,30.6,0,0,2.737Zm1.227-1.59,28.253-3.206L29.4,1.522,1.318,4.048Z" transform="translate(624.657 436.037)" fill="none" stroke="#e6e6e6" stroke-width="2"/>
      <path id="Fill-39" d="M0,4.605,102.6,2l-.01-2L.014,2.542Z" transform="translate(213.602 252.551)" fill="#e6e6e6"/>
      <path id="Fill-40" d="M0,5.881,103.013,2.017,103,0,.014,3.8Z" transform="translate(213.331 292.609)" fill="#e6e6e6"/>
      <path id="Fill-41" d="M0,82.3l2.1-.091L2.411,0,.332.039Z" transform="translate(238.556 234.97)" fill="#e6e6e6"/>
      <path id="Fill-42" d="M.086,81.037l2.032-.088L2.016,0,0,.038Z" transform="translate(290.099 233.997)" fill="#e6e6e6"/>
      <path id="Fill-43" d="M.019,4.275,93.27,1.908,93.234,0,0,2.31Z" transform="translate(374.825 248.787)" fill="#e6e6e6"/>
      <path id="Fill-44" d="M.019,5.433,93.611,1.923,93.578,0,0,3.453Z" transform="translate(375.197 286.984)" fill="#e6e6e6"/>
      <path id="Fill-45" d="M.921,78.388l1.9-.083L1.888,0,0,.036Z" transform="translate(397.482 231.956)" fill="#e6e6e6"/>
      <path id="Fill-46" d="M1.265,77.24l1.848-.08L1.834,0,0,.035Z" transform="translate(444.037 231.071)" fill="#e6e6e6"/>
      <path id="Fill-47" d="M.054,3.885l82.354-2.09L82.341,0,0,2.04Z" transform="translate(573.108 244.144)" fill="#e6e6e6"/>
      <path id="Fill-48" d="M.054,4.907l82.619-3.1L82.609,0,0,3.048Z" transform="translate(574.186 280.047)" fill="#e6e6e6"/>
      <path id="Fill-49" d="M2.3,73.577,3.974,73.5,1.667,0,0,.032Z" transform="translate(592.741 228.245)" fill="#e6e6e6"/>
      <path id="Fill-50" d="M2.562,72.565l1.632-.071L1.622,0,0,.031Z" transform="translate(633.864 227.463)" fill="#e6e6e6"/>
      <path id="Fill-60" d="M5.377,102.483l1.451-.072L1.438,0,0,.019Z" transform="translate(805.014 207.275)" fill="#e6e6e6"/>
      <path id="Fill-61" d="M5.834,100.4l1.393-.069L1.382,0,0,.018Z" transform="translate(861.429 206.542)" fill="#e6e6e6"/>
      <path id="Fill-62" d="M.085,4.176,113.129,1.648,113.028,0,0,2.46Z" transform="translate(777.901 230.076)" fill="#e6e6e6"/>
      <path id="Fill-63" d="M.086,6.267l113.5-4.6L113.483,0,0,4.533Z" transform="translate(780.463 279.603)" fill="#e6e6e6"/>
      <path id="Fill-64" d="M5.6,106.873l1.475-.184L1.462,0,0,.129Z" transform="translate(815.829 413.252)" fill="#e6e6e6"/>
      <path id="Fill-65" d="M6.072,104.615l1.415-.176L1.4,0,0,.121Z" transform="translate(873.159 408.298)" fill="#e6e6e6"/>
      <path id="Fill-66" d="M.089,12.8,114.975,1.715,114.87,0,0,11.007Z" transform="translate(788.309 431.161)" fill="#e6e6e6"/>
      <path id="Fill-67" d="M.09,15.049,115.443,1.731,115.338,0,0,13.241Z" transform="translate(790.965 482.425)" fill="#e6e6e6"/>
      <g id="Group-3" data-name="Group" transform="translate(258.186 464.09)">
        <path id="Fill-32-2" data-name="Fill-32" d="M.362,16.075,0,193.581l177.56-25.707L175.047,0Zm4.48,2.8L4.571,189.6l168.836-24.278L171.047,3.417Z" fill="none" stroke="#e6e6e6" stroke-width="2"/>
        <path id="Fill-33-2" data-name="Fill-33" d="M.005,20.336,0,23.6,172.871,3.092,172.826,0Z" transform="translate(1.396 81.953)" fill="#e6e6e6"/>
        <path id="Fill-34-2" data-name="Fill-34" d="M0,.3,1.1,168.7l3.338-.48L3.285,0Z" transform="translate(88.4 9.233)" fill="#e6e6e6"/>
        <path id="Fill-64-2" data-name="Fill-64" d="M0,18.083V19.7L172.169,1.533,172.147,0Z" transform="translate(1.481 41.675)" fill="#e6e6e6"/>
        <path id="Fill-65-2" data-name="Fill-65" d="M0,22.72v1.646L173.554,1.558,173.531,0Z" transform="translate(1.314 124.104)" fill="#e6e6e6"/>
        <path id="Fill-66-2" data-name="Fill-66" d="M0,.194,1.781,167.368l2.119-.306L2.087,0Z" transform="translate(130.786 5.423)" fill="#e6e6e6"/>
        <path id="Fill-67-2" data-name="Fill-67" d="M0,.2.4,172.019l2.236-.323L2.2,0Z" transform="translate(45.038 13.344)" fill="#e6e6e6"/>
      </g>
      <g id="Group-12" transform="translate(0 349.985)">
        <path id="Fill-1-3" data-name="Fill-1" d="M13.062,17.878a23.79,23.79,0,0,0,4.1,6.048,25.378,25.378,0,0,0,5.7,4.57A28.09,28.09,0,0,0,29.794,31.4a31.108,31.108,0,0,0,7.8,1.071L38.029,2.64l6.133-.44L43.92,19.594a21.438,21.438,0,0,0,4.542-1.527,21.285,21.285,0,0,0,4.032-2.453,20.263,20.263,0,0,0,3.336-3.251,18.756,18.756,0,0,0,2.453-3.919l5.561,1.762a24.879,24.879,0,0,1-3.4,5.382A26.971,26.971,0,0,1,55.8,20.01a28.387,28.387,0,0,1-5.626,3.276,28.561,28.561,0,0,1-6.331,1.937L40.254,283l-6.311.961,3.57-245.838a37.649,37.649,0,0,1-9.607-1.162,33.98,33.98,0,0,1-8.555-3.471,30.683,30.683,0,0,1-7.037-5.552,28.737,28.737,0,0,1-5.043-7.4Z" transform="translate(92.903 68.535)" fill="#e6e6e6"/>
        <g id="Group-8" transform="translate(0 101.587)">
          <g id="Group-5">
            <path id="Fill-3-3" data-name="Fill-3" d="M8.4,51.632a37.758,37.758,0,0,1,4.094-4.113,40.519,40.519,0,0,1,4.727-3.507,42.958,42.958,0,0,1,5.261-2.847,44.791,44.791,0,0,1,5.7-2.134q0-.039,0-.079v-.237a25.975,25.975,0,0,1,3.05-11.41A34.068,34.068,0,0,1,38.99,17.58,41.6,41.6,0,0,1,50.253,10.57a43.778,43.778,0,0,1,13.554-3.3A39.463,39.463,0,0,1,76.554,8.271,31.97,31.97,0,0,1,87,12.942a25.393,25.393,0,0,1,7.269,7.614,22.287,22.287,0,0,1,3.2,9.867,34.374,34.374,0,0,1,10.307,2.67,28.051,28.051,0,0,1,8.129,5.354,23.225,23.225,0,0,1,5.3,7.529,22.144,22.144,0,0,1,1.816,9.216,25.713,25.713,0,0,1-2.786,11.075,33.4,33.4,0,0,1-7.308,9.584,40.525,40.525,0,0,1-10.781,7.089,42.609,42.609,0,0,1-13.2,3.555q-1.148.117-2.291.17t-2.276.041q-1.133-.011-2.252-.087T79.911,86.4l2.06-6.056q.862.111,1.739.171t1.766.07q.888.01,1.786-.03t1.8-.129a33.442,33.442,0,0,0,10.366-2.772,31.828,31.828,0,0,0,8.481-5.552,26.239,26.239,0,0,0,5.759-7.53,20.2,20.2,0,0,0,2.195-8.71,17.367,17.367,0,0,0-1.925-8.308,18.988,18.988,0,0,0-5.514-6.435,23.942,23.942,0,0,0-8.289-3.947,29.88,29.88,0,0,0-10.259-.819q-1.343.118-2.67.343t-2.628.555q-1.3.331-2.577.766T79.482,39l-2.743-5.3q1.586-.685,3.212-1.238t3.286-.968q1.659-.418,3.347-.7t3.4-.431H90.1a17.625,17.625,0,0,0-2.857-7.328,20.393,20.393,0,0,0-5.779-5.617,25.486,25.486,0,0,0-8.066-3.413,31.182,31.182,0,0,0-9.723-.7A34.467,34.467,0,0,0,53,15.918a32.732,32.732,0,0,0-8.845,5.524,26.8,26.8,0,0,0-6.09,7.652,20.44,20.44,0,0,0-2.389,8.967,18.157,18.157,0,0,0,.225,3.333,17.469,17.469,0,0,0,.825,3.177,17.669,17.669,0,0,0,1.4,2.978,18.747,18.747,0,0,0,1.977,2.735L33.814,54.27a24.069,24.069,0,0,1-1.638-2.109,23.05,23.05,0,0,1-1.365-2.236,22.374,22.374,0,0,1-1.893-4.8,35.369,35.369,0,0,0-4.155,1.692A33.579,33.579,0,0,0,20.925,49a31.44,31.44,0,0,0-3.452,2.631,29.2,29.2,0,0,0-3.007,3.053,26.168,26.168,0,0,0-2.862,4.09,22.273,22.273,0,0,0-1.872,4.308A19.523,19.523,0,0,0,8.893,67.5a18.123,18.123,0,0,0,.225,4.417A17.5,17.5,0,0,0,10.4,76.095a17.754,17.754,0,0,0,2.269,3.721,19.526,19.526,0,0,0,3.185,3.175,22.738,22.738,0,0,0,4.031,2.544,26.1,26.1,0,0,0,4.669,1.774,29.193,29.193,0,0,0,5.049.916,32.3,32.3,0,0,0,5.294.052,34.966,34.966,0,0,0,5.4-.819q.586-.136,1.162-.291t1.14-.323q.564-.17,1.118-.358t1.1-.387L47.1,91.668q-.69.263-1.394.5t-1.42.46q-.717.219-1.447.415t-1.475.371q-.707.165-1.413.306t-1.411.258q-.7.119-1.409.214t-1.405.167a42.16,42.16,0,0,1-5.423.209,39.106,39.106,0,0,1-5.266-.494,35.937,35.937,0,0,1-5.023-1.192A32.946,32.946,0,0,1,15.318,91a28.987,28.987,0,0,1-5.152-3.241,24.883,24.883,0,0,1-4.072-4.05,22.613,22.613,0,0,1-2.9-4.746,22.3,22.3,0,0,1-1.639-5.338,23.079,23.079,0,0,1-.284-5.639A24.876,24.876,0,0,1,2.35,62.348a28.4,28.4,0,0,1,2.389-5.5A33.4,33.4,0,0,1,8.4,51.635" transform="translate(-1.212 -7.126)" fill="#e6e6e6"/>
          </g>
          <path id="Fill-6-2" data-name="Fill-6" d="M10.129,13.3a10.345,10.345,0,0,0,2.315-1.185A13.029,13.029,0,0,0,14.5,10.376a14.945,14.945,0,0,0,1.713-2.136A14.919,14.919,0,0,0,17.5,5.852l5.244,1.781a19.352,19.352,0,0,1-2.2,3.857,19.66,19.66,0,0,1-2.961,3.221,19.382,19.382,0,0,1-3.566,2.463,18.443,18.443,0,0,1-4.008,1.581l-4.1,196.835-5.913.9L4.584,2.322l5.786-.534Z" transform="translate(54.278 45.429)" fill="#e6e6e6"/>
        </g>
        <g id="Group-11" transform="translate(35.48 0)">
          <path id="Combined-Shape" d="M85.8,5.592A52.369,52.369,0,0,0,52.76,19.666,47.456,47.456,0,0,0,42.4,33.72a40.875,40.875,0,0,0-4.058,16.808q0,.217,0,.433c0,.144.005.287.01.431s.01.287.015.431.01.287.014.431a55.2,55.2,0,0,0-8.035,2.871,53.961,53.961,0,0,0-7.429,4.048,52.46,52.46,0,0,0-6.67,5.149A50.938,50.938,0,0,0,10.493,70.5a48.089,48.089,0,0,0-4.925,7.626,43.448,43.448,0,0,0-3.222,8.108A40.066,40.066,0,0,0,.9,94.617a38.262,38.262,0,0,0,.393,8.442,37.284,37.284,0,0,0,.885,4.105,36.081,36.081,0,0,0,5.229,11.121,2.44,2.44,0,0,1-.129-1.307,2.264,2.264,0,0,1,.439-.853,5.372,5.372,0,0,0,.588-.9,3.5,3.5,0,0,0,.318-1.463c.019-.8.233-1.145.565-1.249a2.472,2.472,0,0,1,1.268.167,3.7,3.7,0,0,0,1.5.216,1.618,1.618,0,0,0,1.255-1.1c0-.024-.209-.319-.539-.839s-.784-1.264-1.285-2.186-1.052-2.021-1.572-3.251a30.8,30.8,0,0,1-1.4-4.032,32.614,32.614,0,0,1-.332-7.162A34.093,34.093,0,0,1,9.3,87.214a36.918,36.918,0,0,1,2.724-6.882A40.833,40.833,0,0,1,16.2,73.853a43.5,43.5,0,0,1,4.724-5.118,44.665,44.665,0,0,1,5.463-4.3,45.753,45.753,0,0,1,6.082-3.426,46.6,46.6,0,0,1,6.585-2.487,37.36,37.36,0,0,0,1.041,4.112,36.534,36.534,0,0,0,5.866,11.28h0l5.869-3.952a31.635,31.635,0,0,1-2.876-4.491A31.024,31.024,0,0,1,46.9,60.61a31.345,31.345,0,0,1-1.205-5.152,32.574,32.574,0,0,1-.336-5.371A34.8,34.8,0,0,1,48.795,35.8a40.407,40.407,0,0,1,8.793-11.974A44.6,44.6,0,0,1,85.707,11.792a41.421,41.421,0,0,1,12.422,1.187,37.108,37.108,0,0,1,10.708,4.579A33.486,33.486,0,0,1,117.164,25a31.363,31.363,0,0,1,5.278,9.8l-.766.151q-.383.077-.766.159t-.767.174q-.383.092-.768.194-1.926.52-3.784,1.2t-3.643,1.527q-1.784.844-3.486,1.846t-3.318,2.16h0l4.85,5.973q1.263-.909,2.6-1.7t2.732-1.453q1.4-.665,2.856-1.2t2.97-.952a33.353,33.353,0,0,1,10.5-1.154,30.513,30.513,0,0,1,9.641,2.075,27.552,27.552,0,0,1,8.054,4.888A25.055,25.055,0,0,1,155.089,56l1.2-1.575.094-10.413a33.791,33.791,0,0,0-5.625-4.376,36.13,36.13,0,0,0-6.529-3.192,38.466,38.466,0,0,0-7.236-1.9,40.641,40.641,0,0,0-7.747-.5A36.836,36.836,0,0,0,123.3,22a39.059,39.059,0,0,0-9.78-9.193,43.283,43.283,0,0,0-12.775-5.694A48.436,48.436,0,0,0,85.8,5.592Z" transform="translate(-0.819 -5.52)" fill="#e6e6e6"/>
        </g>
      </g>
    </g>
  </g>
</svg>
