<svg xmlns="http://www.w3.org/2000/svg" width="59.08" height="65" viewBox="0 0 59.08 65">
  <g id="ADT_Icons_AlexaGuard_RGB_Black" transform="translate(-0.007)">
    <path id="Path_496" data-name="Path 496" d="M28.565,17.53a.988.988,0,0,0-1.378.2l-6.6,8.794-2.9-3.87a.985.985,0,0,0-1.576,1.182l3.693,4.925a.987.987,0,0,0,1.576,0l7.386-9.849a.981.981,0,0,0-.207-1.378Z" transform="translate(7.595 8.273)" fill="#0a61aa"/>
    <path id="Path_497" data-name="Path 497" d="M25.25,10.333A16.25,16.25,0,1,0,41.5,26.583,16.266,16.266,0,0,0,25.25,10.333Zm0,30.531A14.28,14.28,0,1,1,39.531,26.583,14.291,14.291,0,0,1,25.25,40.864Z" transform="translate(4.292 4.932)" fill="#0a61aa"/>
    <path id="Path_498" data-name="Path 498" d="M59.087,5.308v-.1c0-.021-.01-.05-.01-.069a.084.084,0,0,0-.009-.04c0-.019-.01-.03-.01-.049s-.01-.019-.01-.04-.009-.038-.019-.049-.01-.019-.01-.03a.252.252,0,0,0-.038-.069c-.01-.009-.01-.019-.021-.03s-.019-.03-.03-.049-.009-.019-.019-.03a.173.173,0,0,0-.04-.049c-.009-.01-.009-.021-.019-.021-.019-.019-.03-.038-.049-.049l-.01-.01-.059-.059-.019-.019c-.021-.01-.03-.03-.05-.04s-.019-.009-.03-.019l-.049-.03c-.01-.01-.019-.01-.03-.019s-.03-.021-.049-.021a.041.041,0,0,0-.03-.009c-.03-.01-.05-.021-.08-.03-.009,0-.019-.01-.03-.01a.443.443,0,0,1-.049-.01c-.01,0-.019-.009-.04-.009s-.038-.01-.059-.01h-.236c-.019,0-.038.01-.059.01a.079.079,0,0,0-.038.009.412.412,0,0,0-.05.01.074.074,0,0,0-.049.019c-.019.01-.04.01-.059.021s-.03.009-.04.019-.03.01-.038.019-.021.01-.04.021-.01.009-.019.009c-3.723,2.237-8.844,3.073-14.034,2.275A24,24,0,0,1,30.27.335.969.969,0,0,0,29.532,0h-.009a.892.892,0,0,0-.483.137.908.908,0,0,1-.078.05.517.517,0,0,0-.109.1A23.979,23.979,0,0,1,15.538,6.736C10.348,7.524,5.226,6.7,1.5,4.461a.974.974,0,0,0-.994-.01,1,1,0,0,0-.5.857c0,17.866,1.8,29.172,5.829,36.657A53.053,53.053,0,0,0,29.109,64.9a.034.034,0,0,0,.03.01c.009,0,.009.01.019.01.03.009.069.03.108.038.01,0,.01,0,.021.01a.385.385,0,0,0,.108.019h.019a.561.561,0,0,0,.129.01.539.539,0,0,0,.129-.01h.019c.04-.009.069-.009.108-.019.01,0,.021,0,.021-.01a.3.3,0,0,0,.1-.038c.01,0,.01-.01.021-.01s.019-.01.03-.01A53.15,53.15,0,0,0,53.248,41.974C57.285,34.49,59.087,23.183,59.087,5.308ZM51.524,41.039A51.247,51.247,0,0,1,29.542,62.912,51.247,51.247,0,0,1,7.56,41.039c-3.742-6.954-5.485-17.5-5.594-34.076A23.852,23.852,0,0,0,15.814,8.7,25.883,25.883,0,0,0,29.532,2.353,26,26,0,0,0,43.251,8.7,23.918,23.918,0,0,0,57.1,6.962C57.009,23.528,55.266,34.085,51.524,41.039Z" transform="translate(0 0)" fill="#0a61aa"/>
  </g>
</svg>
