<svg id="adt-icon_ribbon_6-month-money-back-guarantee_blu1" xmlns="http://www.w3.org/2000/svg" width="55.321" height="99" viewBox="0 0 55.321 99">
  <rect id="Rectangle_606" data-name="Rectangle 606" width="55" height="99" fill="#0a61aa" opacity="0"/>
  <path id="Shape" d="M54.695,131.7l-3.5-2.9,2.43-3.837a1.1,1.1,0,0,0-.524-1.614l-4.221-1.675,1.126-4.4a1.1,1.1,0,0,0-1-1.373l-4.532-.289-.289-4.532a1.1,1.1,0,0,0-1.373-1l-4.4,1.126-1.675-4.221a1.1,1.1,0,0,0-1.614-.524L31.293,108.9l-2.9-3.5a1.1,1.1,0,0,0-1.7,0l-2.9,3.5-3.837-2.43a1.1,1.1,0,0,0-1.614.524l-1.675,4.221-4.4-1.126a1.1,1.1,0,0,0-1.373,1l-.289,4.532-4.532.289a1.1,1.1,0,0,0-1,1.373l1.126,4.4-4.221,1.675a1.1,1.1,0,0,0-.524,1.614L3.9,128.8.4,131.7a1.1,1.1,0,0,0,0,1.7l3.5,2.9-2.43,3.837a1.1,1.1,0,0,0,.524,1.614l4.221,1.675-1.126,4.4a1.1,1.1,0,0,0,1,1.373l4.532.289.231,3.628L2.531,173.181a1.1,1.1,0,0,0,1.232,1.5l9.022-1.785,5.118,7.643a1.1,1.1,0,0,0,.916.489c.036,0,.073,0,.109-.006a1.1,1.1,0,0,0,.909-.674l7.71-18.615,7.71,18.613a1.1,1.1,0,0,0,.909.674c.036,0,.073.005.109.005a1.1,1.1,0,0,0,.916-.489l5.118-7.643,9.023,1.785a1.1,1.1,0,0,0,1.232-1.5l-8.316-20.072.231-3.628,4.532-.289a1.1,1.1,0,0,0,1-1.373l-1.126-4.4,4.221-1.675a1.1,1.1,0,0,0,.524-1.614l-2.43-3.836,3.5-2.9a1.1,1.1,0,0,0,0-1.7Zm-36.1,45.9-4.381-6.542a1.1,1.1,0,0,0-1.129-.468l-7.723,1.528,7.108-17.162,4.212-1.078,1.675,4.221a1.1,1.1,0,0,0,1.614.524L23.8,156.2l2.436,2.941Zm23.425-7.01a1.1,1.1,0,0,0-1.129.468L36.5,177.6l-7.648-18.465,2.437-2.94,3.837,2.43a1.1,1.1,0,0,0,1.614-.524l1.675-4.221,4.212,1.078,7.108,17.162Zm7.031-35.379a1.1,1.1,0,0,0-.228,1.438l2.238,3.533-3.886,1.543a1.1,1.1,0,0,0-.661,1.3l1.037,4.05-4.173.266a1.1,1.1,0,0,0-1.029,1.029l-.266,4.173-4.05-1.037a1.1,1.1,0,0,0-1.3.661l-1.543,3.886-3.533-2.238a1.1,1.1,0,0,0-1.438.228l-2.67,3.222-2.668-3.22a1.1,1.1,0,0,0-1.439-.228l-3.533,2.238-1.543-3.886a1.1,1.1,0,0,0-1.3-.661l-4.05,1.037-.266-4.173a1.1,1.1,0,0,0-1.029-1.029l-4.173-.266,1.037-4.05a1.1,1.1,0,0,0-.661-1.3l-3.886-1.543,2.238-3.533a1.1,1.1,0,0,0-.228-1.438l-3.221-2.67,3.22-2.668a1.1,1.1,0,0,0,.228-1.438l-2.238-3.533,3.886-1.543a1.1,1.1,0,0,0,.661-1.3l-1.037-4.05,4.173-.266a1.1,1.1,0,0,0,1.029-1.029l.266-4.173,4.05,1.037a1.1,1.1,0,0,0,1.3-.661l1.543-3.886,3.533,2.238a1.1,1.1,0,0,0,1.438-.228l2.67-3.222,2.668,3.22a1.1,1.1,0,0,0,1.438.228l3.533-2.238,1.543,3.886a1.1,1.1,0,0,0,1.3.661l4.05-1.037.266,4.173a1.1,1.1,0,0,0,1.029,1.029l4.173.266-1.037,4.05a1.1,1.1,0,0,0,.661,1.3l3.886,1.543-2.238,3.533a1.1,1.1,0,0,0,.228,1.438l3.222,2.67Z" transform="translate(0.227 -93.558)" fill="#0a61aa"/>
  <path id="Shape-2" data-name="Shape" d="M202.911,267.144a3.632,3.632,0,0,1,3.627,3.627,1.1,1.1,0,1,0,2.2,0,5.831,5.831,0,1,0-11.662,0v8.186a5.841,5.841,0,1,0,2.2-4.561v-3.625A3.631,3.631,0,0,1,202.911,267.144Zm0,8.186a3.627,3.627,0,1,1-3.627,3.627A3.632,3.632,0,0,1,202.911,275.33Z" transform="translate(-175.137 -235.875)" fill="#0a61aa"/>
  <path id="Shape-3" data-name="Shape" d="M54.695,131.7l-3.5-2.9,2.43-3.837a1.1,1.1,0,0,0-.524-1.614l-4.221-1.675,1.126-4.4a1.1,1.1,0,0,0-1-1.373l-4.532-.289-.289-4.532a1.1,1.1,0,0,0-1.373-1l-4.4,1.126-1.675-4.221a1.1,1.1,0,0,0-1.614-.524L31.293,108.9l-2.9-3.5a1.1,1.1,0,0,0-1.7,0l-2.9,3.5-3.837-2.43a1.1,1.1,0,0,0-1.614.524l-1.675,4.221-4.4-1.126a1.1,1.1,0,0,0-1.373,1l-.289,4.532-4.532.289a1.1,1.1,0,0,0-1,1.373l1.126,4.4-4.221,1.675a1.1,1.1,0,0,0-.524,1.614L3.9,128.8.4,131.7a1.1,1.1,0,0,0,0,1.7l3.5,2.9-2.43,3.837a1.1,1.1,0,0,0,.524,1.614l4.221,1.675-1.126,4.4a1.1,1.1,0,0,0,1,1.373l4.532.289.231,3.628L2.531,173.181a1.1,1.1,0,0,0,1.232,1.5l9.022-1.785,5.118,7.643a1.1,1.1,0,0,0,.916.489c.036,0,.073,0,.109-.006a1.1,1.1,0,0,0,.909-.674l7.71-18.615,7.71,18.613a1.1,1.1,0,0,0,.909.674c.036,0,.073.005.109.005a1.1,1.1,0,0,0,.916-.489l5.118-7.643,9.023,1.785a1.1,1.1,0,0,0,1.232-1.5l-8.316-20.072.231-3.628,4.532-.289a1.1,1.1,0,0,0,1-1.373l-1.126-4.4,4.221-1.675a1.1,1.1,0,0,0,.524-1.614l-2.43-3.836,3.5-2.9a1.1,1.1,0,0,0,0-1.7Zm-36.1,45.9-4.381-6.542a1.1,1.1,0,0,0-1.129-.468l-7.723,1.528,7.108-17.162,4.212-1.078,1.675,4.221a1.1,1.1,0,0,0,1.614.524L23.8,156.2l2.436,2.941Zm23.425-7.01a1.1,1.1,0,0,0-1.129.468L36.5,177.6l-7.648-18.465,2.437-2.94,3.837,2.43a1.1,1.1,0,0,0,1.614-.524l1.675-4.221,4.212,1.078,7.108,17.162Zm7.031-35.379a1.1,1.1,0,0,0-.228,1.438l2.238,3.533-3.886,1.543a1.1,1.1,0,0,0-.661,1.3l1.037,4.05-4.173.266a1.1,1.1,0,0,0-1.029,1.029l-.266,4.173-4.05-1.037a1.1,1.1,0,0,0-1.3.661l-1.543,3.886-3.533-2.238a1.1,1.1,0,0,0-1.438.228l-2.67,3.222-2.668-3.22a1.1,1.1,0,0,0-1.439-.228l-3.533,2.238-1.543-3.886a1.1,1.1,0,0,0-1.3-.661l-4.05,1.037-.266-4.173a1.1,1.1,0,0,0-1.029-1.029l-4.173-.266,1.037-4.05a1.1,1.1,0,0,0-.661-1.3l-3.886-1.543,2.238-3.533a1.1,1.1,0,0,0-.228-1.438l-3.221-2.67,3.22-2.668a1.1,1.1,0,0,0,.228-1.438l-2.238-3.533,3.886-1.543a1.1,1.1,0,0,0,.661-1.3l-1.037-4.05,4.173-.266a1.1,1.1,0,0,0,1.029-1.029l.266-4.173,4.05,1.037a1.1,1.1,0,0,0,1.3-.661l1.543-3.886,3.533,2.238a1.1,1.1,0,0,0,1.438-.228l2.67-3.222,2.668,3.22a1.1,1.1,0,0,0,1.438.228l3.533-2.238,1.543,3.886a1.1,1.1,0,0,0,1.3.661l4.05-1.037.266,4.173a1.1,1.1,0,0,0,1.029,1.029l4.173.266-1.037,4.05a1.1,1.1,0,0,0,.661,1.3l3.886,1.543-2.238,3.533a1.1,1.1,0,0,0,.228,1.438l3.222,2.67Z" transform="translate(0.227 -93.558)" fill="#0a61aa"/>
  <path id="Shape-4" data-name="Shape" d="M202.911,267.144a3.632,3.632,0,0,1,3.627,3.627,1.1,1.1,0,1,0,2.2,0,5.831,5.831,0,1,0-11.662,0v8.186a5.841,5.841,0,1,0,2.2-4.561v-3.625A3.631,3.631,0,0,1,202.911,267.144Zm0,8.186a3.627,3.627,0,1,1-3.627,3.627A3.632,3.632,0,0,1,202.911,275.33Z" transform="translate(-175.137 -235.875)" fill="#0a61aa"/>
</svg>
