<svg xmlns="http://www.w3.org/2000/svg" width="67.962" height="60.193" viewBox="0 0 67.962 60.193">
  <g id="Secure_icon" transform="translate(1 1.12)">
    <path id="Stroke-8" d="M65.585,29.364,55.433,19.6V4.437H45.607v5.718L33.832.343a1.228,1.228,0,0,0-1.7,0L.377,29.364A1.228,1.228,0,0,0,.36,31.118l3.54,3.54a1.232,1.232,0,0,0,1.7.039L32.154,10.451a1.226,1.226,0,0,1,1.655,0L60.366,34.7a1.23,1.23,0,0,0,1.7-.039l3.54-3.54A1.228,1.228,0,0,0,65.585,29.364ZM33.809,10.451a1.226,1.226,0,0,0-1.655,0L8.415,32.124v25.95H57.547V32.124Z" fill="none" stroke="#0a61aa" stroke-linecap="round" stroke-linejoin="round" stroke-width="2" fill-rule="evenodd"/>
    <path id="Stroke-9" d="M16.691,24.553a.017.017,0,0,1-.011,0l-5.743-5.743a.017.017,0,0,1,0-.02.015.015,0,0,1,.022,0l5.732,5.731L27.135,14.073a.015.015,0,0,1,.022,0,.013.013,0,0,1,0,.02L16.7,24.549A.017.017,0,0,1,16.691,24.553Z" transform="translate(13.935 17.931)" fill="none" stroke="#0a61aa" stroke-linecap="round" stroke-linejoin="round" stroke-width="2" fill-rule="evenodd"/>
  </g>
</svg>
